<svg xmlns="http://www.w3.org/2000/svg" xmlns:xlink="http://www.w3.org/1999/xlink" viewBox="0,0,256,256" width="48px" height="48px" fill-rule="nonzero"><g fill="#f2f2f2" fill-rule="nonzero" stroke="none" stroke-width="1" stroke-linecap="butt" stroke-linejoin="miter" stroke-miterlimit="10" stroke-dasharray="" stroke-dashoffset="0" font-family="none" font-weight="none" font-size="none" text-anchor="none" style="mix-blend-mode: normal"><g transform="scale(5.33333,5.33333)"><path d="M22.5,1c-1.36906,0 -2.5,1.13094 -2.5,2.5v3.03711c-1.98964,0.45463 -3.84446,1.229 -5.52344,2.2832l-2.14453,-2.14453c-0.96811,-0.96811 -2.56772,-0.96909 -3.53516,0l-2.12109,2.12109c-0.96811,0.96811 -0.96909,2.56772 0,3.53516l2.14453,2.14453c-1.05429,1.67885 -1.82838,3.53365 -2.2832,5.52344h-3.03711c-1.36906,0 -2.5,1.13094 -2.5,2.5v3c0,1.36906 1.13094,2.5 2.5,2.5h3.03711c0.45463,1.98964 1.229,3.84446 2.2832,5.52344l-2.14453,2.14453c-0.96811,0.96811 -0.96909,2.56772 0,3.53516l2.11914,2.12109c0.96771,0.96771 2.5694,0.96771 3.53711,0l2.14453,-2.14453c1.67832,1.05394 3.53225,1.82697 5.52149,2.28125v3.03711c0,1.36906 1.13094,2.5 2.5,2.5h3c1.36906,0 2.5,-1.13094 2.5,-2.5v-3.03516c1.9898,-0.45462 3.84435,-1.22893 5.52344,-2.2832l2.14453,2.14453c0.96765,0.96765 2.56758,0.96772 3.53516,0l2.12109,-2.12109c0.96811,-0.96811 0.96909,-2.56772 0,-3.53516l-2.14453,-2.14453c1.05429,-1.67887 1.82899,-3.53347 2.2832,-5.52344h3.03711c1.36906,0 2.5,-1.13094 2.5,-2.5v-2.99805v-0.00195c0.00224,-1.36949 -1.12963,-2.5 -2.49805,-2.5h-3.03711c-0.45463,-1.98964 -1.229,-3.84446 -2.2832,-5.52344l2.14453,-2.14453c0.96811,-0.96811 0.96909,-2.56772 0,-3.53516l-2.11914,-2.12109c-0.96771,-0.96771 -2.5694,-0.96771 -3.53711,0l-2.14453,2.14453c-1.67936,-1.0542 -3.53365,-1.82838 -5.52344,-2.2832v-3.03711c0,-1.36906 -1.13094,-2.5 -2.5,-2.5zM22.5,3h3c0.28694,0 0.5,0.21306 0.5,0.5v3.7793c0.00007,0.48444 0.34733,0.89918 0.82422,0.98438c2.31575,0.41343 4.45527,1.3167 6.31055,2.60938c0.39755,0.2772 0.93664,0.22947 1.2793,-0.11328l2.66992,-2.66992c0.20429,-0.20429 0.50079,-0.20429 0.70508,0l2.12109,2.12109c0.00065,0 0.0013,0 0.00195,0c0.20291,0.20256 0.20198,0.50314 -0.00195,0.70703l-2.66992,2.66992c-0.34275,0.34265 -0.39048,0.88175 -0.11328,1.2793c1.29239,1.85393 2.1959,3.99259 2.60938,6.30859c0.0852,0.47689 0.49993,0.82415 0.98438,0.82422h3.7793c0.28694,0 0.49874,0.21241 0.49805,0.49805c0,0.00065 0,0.0013 0,0.00195v3c0,0.28694 -0.21306,0.5 -0.5,0.5h-3.7793c-0.48444,0.00007 -0.89918,0.34733 -0.98437,0.82422c-0.41244,2.31543 -1.31685,4.45447 -2.60937,6.30859c-0.2772,0.39755 -0.22947,0.93664 0.11328,1.2793l2.66992,2.66992c0.00065,0 0.0013,0 0.00195,0c0.20291,0.20256 0.20198,0.50314 -0.00195,0.70703l-2.12109,2.12109c-0.20256,0.20291 -0.50119,0.20389 -0.70508,0l-2.67187,-2.66992c-0.34236,-0.34168 -0.88019,-0.38938 -1.27734,-0.11328c-1.85393,1.29239 -3.99259,2.19395 -6.30859,2.60742c-0.47767,0.08436 -0.82594,0.49932 -0.82617,0.98438v3.7793c0,0.28694 -0.21306,0.5 -0.5,0.5h-3c-0.28694,0 -0.5,-0.21306 -0.5,-0.5v-3.7793c-0.00007,-0.48444 -0.34733,-0.89918 -0.82422,-0.98437c-2.31548,-0.41244 -4.45447,-1.3149 -6.30859,-2.60742c-0.39755,-0.2772 -0.93664,-0.22947 -1.2793,0.11328l-2.66992,2.66992c-0.20429,0.20429 -0.50079,0.20429 -0.70508,0l-2.12109,-2.12109c-0.00065,0 -0.0013,0 -0.00195,0c-0.20291,-0.20256 -0.20194,-0.50314 0.00195,-0.70703l2.66992,-2.66992c0.34275,-0.34265 0.39048,-0.88175 0.11328,-1.2793c-1.29239,-1.85393 -2.1959,-3.99259 -2.60938,-6.30859c-0.0852,-0.47689 -0.49993,-0.82415 -0.98437,-0.82422h-3.7793c-0.28694,0 -0.5,-0.21306 -0.5,-0.5v-3c0,-0.28694 0.21306,-0.5 0.5,-0.5h3.7793c0.48444,-0.00007 0.89918,-0.34733 0.98438,-0.82422c0.41343,-2.31575 1.31685,-4.45447 2.60938,-6.30859c0.2772,-0.39755 0.22947,-0.93664 -0.11328,-1.2793l-2.66992,-2.66992c-0.20291,-0.20256 -0.20389,-0.50314 0,-0.70703l2.12109,-2.12109c0,-0.00065 0,-0.0013 0,-0.00195c0.20256,-0.20291 0.50314,-0.20193 0.70703,0.00195l2.66992,2.66992c0.34265,0.34275 0.88175,0.39048 1.2793,0.11328c1.85393,-1.29239 3.99259,-2.1959 6.30859,-2.60938c0.47689,-0.0852 0.82415,-0.49993 0.82422,-0.98437v-3.7793c0,-0.28694 0.21306,-0.5 0.5,-0.5zM24,14c-5.51101,0 -10,4.489 -10,10c0,5.511 4.48899,10 10,10c5.51101,0 10,-4.489 10,-10c0,-5.511 -4.48899,-10 -10,-10zM24,16c4.43013,0 8,3.56988 8,8c0,4.43012 -3.56987,8 -8,8c-4.43013,0 -8,-3.56988 -8,-8c0,-4.43012 3.56987,-8 8,-8z"></path></g></g></svg>